<svg width="34" height="34" viewBox="0 0 34 34" fill="none" xmlns="http://www.w3.org/2000/svg">
<g id="mdi:instagram">
<path id="Vector" d="M11.05 2.83325H22.95C27.4833 2.83325 31.1667 6.51659 31.1667 11.0499V22.9499C31.1667 25.1291 30.301 27.2191 28.7601 28.76C27.2191 30.3009 25.1292 31.1666 22.95 31.1666H11.05C6.51668 31.1666 2.83334 27.4833 2.83334 22.9499V11.0499C2.83334 8.87072 3.69903 6.78078 5.23995 5.23986C6.78087 3.69893 8.87082 2.83325 11.05 2.83325ZM10.7667 5.66659C9.41407 5.66659 8.11687 6.20391 7.16043 7.16034C6.204 8.11678 5.66668 9.41398 5.66668 10.7666V23.2333C5.66668 26.0524 7.94751 28.3333 10.7667 28.3333H23.2333C24.5859 28.3333 25.8832 27.7959 26.8396 26.8395C27.796 25.8831 28.3333 24.5859 28.3333 23.2333V10.7666C28.3333 7.94742 26.0525 5.66659 23.2333 5.66659H10.7667ZM24.4375 7.79159C24.9072 7.79159 25.3576 7.97816 25.6897 8.31025C26.0218 8.64235 26.2083 9.09276 26.2083 9.56242C26.2083 10.0321 26.0218 10.4825 25.6897 10.8146C25.3576 11.1467 24.9072 11.3333 24.4375 11.3333C23.9679 11.3333 23.5174 11.1467 23.1853 10.8146C22.8532 10.4825 22.6667 10.0321 22.6667 9.56242C22.6667 9.09276 22.8532 8.64235 23.1853 8.31025C23.5174 7.97816 23.9679 7.79159 24.4375 7.79159ZM17 9.91659C18.8786 9.91659 20.6803 10.6629 22.0087 11.9912C23.3371 13.3196 24.0833 15.1213 24.0833 16.9999C24.0833 18.8785 23.3371 20.6802 22.0087 22.0086C20.6803 23.337 18.8786 24.0833 17 24.0833C15.1214 24.0833 13.3197 23.337 11.9913 22.0086C10.663 20.6802 9.91668 18.8785 9.91668 16.9999C9.91668 15.1213 10.663 13.3196 11.9913 11.9912C13.3197 10.6629 15.1214 9.91659 17 9.91659ZM17 12.7499C15.8728 12.7499 14.7918 13.1977 13.9948 13.9947C13.1978 14.7917 12.75 15.8727 12.75 16.9999C12.75 18.1271 13.1978 19.2081 13.9948 20.0051C14.7918 20.8022 15.8728 21.2499 17 21.2499C18.1272 21.2499 19.2082 20.8022 20.0052 20.0051C20.8022 19.2081 21.25 18.1271 21.25 16.9999C21.25 15.8727 20.8022 14.7917 20.0052 13.9947C19.2082 13.1977 18.1272 12.7499 17 12.7499Z" fill="#F8F8F8"/>
</g>
</svg>
